<mxfile host="app.diagrams.net" modified="2023-05-31T12:04:25.503Z" agent="Mozilla/5.0 (Windows NT 10.0; Win64; x64) AppleWebKit/537.36 (KHTML, like Gecko) Chrome/113.0.0.0 Safari/537.36" version="21.3.5" etag="i_ik2iYmy1_4wGtqPJFJ" type="github">
  <diagram name="Page-1" id="3jdBvgWjC5pc-9ZU-wzO">
    <mxGraphModel>
      <root>
        <mxCell id="0" />
        <mxCell id="1" parent="0" />
      </root>
    </mxGraphModel>
  </diagram>
</mxfile>
